<svg id="Layer_1" data-name="Layer 1" xmlns="http://www.w3.org/2000/svg" xmlns:xlink="http://www.w3.org/1999/xlink" viewBox="0 0 1139.93 240.65"><defs><style>.cls-1{opacity:0.58;isolation:isolate;}.cls-2{fill:#444;}</style></defs><image class="cls-1" width="360" height="76" transform="translate(0 0) scale(3.17)" xlink:href="61F7B45F53BC5F56.png"/><path class="cls-2" d="M-192.1,137.39c0-45.28,30.71-87.08,83.59-87.08,50.67,0,88.35,38,88.35,88.66,0,45.28-30.4,87.08-83.28,87.08C-154.1,225.73-192.1,188.05-192.1,137.39Zm135.84,56c0-49.71-51.3-130.14-84.23-130.14-9.18,0-15.51,6.65-15.51,19.63,0,49.72,52.24,130.14,84.23,130.14C-61.64,213.06-56.26,206.73-56.26,193.43Z" transform="translate(219.97 -18.33)"/><path class="cls-2" d="M134.36,217.5v3.8H67.23v-3.8h9.19V147.84c0-18.05-4.44-24.07-13.94-24.07a32.43,32.43,0,0,0-13.93,3.48V217.5h9.18v3.8H-9.08v-3.8H2.64V133.27l-13.3-11.4L48.87,101v23.12c14.88-13,28.5-21.85,44-21.85,19.63,0,29.77,12.35,29.77,35.78V217.5Z" transform="translate(219.97 -18.33)"/><path class="cls-2" d="M142.91,217.5h11.72V80.07l-13.3-11.4,59.53-20.9V217.5h11.4v3.8H142.91Z" transform="translate(219.97 -18.33)"/><path class="cls-2" d="M220.81,217.5h11.4V133.27l-13.3-11.4L278.44,101V217.5h11.71v3.8H220.81v-3.8Zm8.86-146.29c0-15.2,9.19-25.65,25.65-25.65S281,56,281,71.21c0,15.51-9.18,26-25.65,26S229.67,86.72,229.67,71.21Z" transform="translate(219.97 -18.33)"/><path class="cls-2" d="M441.83,217.5v3.8H374.7v-3.8h9.18V147.84c0-18.05-4.43-24.07-13.93-24.07A32.43,32.43,0,0,0,356,127.25V217.5h9.18v3.8H298.07v-3.8h11.72V133.27l-13.3-11.4L356,101v23.12c14.88-13,28.49-21.85,44-21.85,19.63,0,29.77,12.35,29.77,35.78V217.5Z" transform="translate(219.97 -18.33)"/><path class="cls-2" d="M558,200.4c-9.82,14.88-25.33,23.11-46.55,23.11-32.61,0-59.53-22.79-59.53-58.58,0-33.88,22.8-61.74,59.53-61.74,21.85,0,36.73,12.66,36.73,29.45,0,19.31-14.88,36.09-42.43,46.54,13.3,13,29.77,21.54,45.28,21.54a26.48,26.48,0,0,0,7-.32ZM480.46,125c0,19.31,9.81,38.63,23.75,52.88,6.33-8.24,8.86-17.42,8.86-29.45,0-20.27-13.3-37.37-23.43-37.37C483.94,111.42,480.46,116.49,480.46,125Z" transform="translate(219.97 -18.33)"/><path class="cls-2" d="M572,156.07h64.91V170H572Z" transform="translate(219.97 -18.33)"/><path class="cls-2" d="M656.2,217.5h21.85V97.17L650.5,81.66h0L728.71,49V217.5h21.85v3.8H655.88v-3.8Z" transform="translate(219.97 -18.33)"/><path class="cls-2" d="M888.3,119.65c0,54.47-43.38,92.78-109.24,107.66l-.95-2.53c31.35-12.35,48.44-34.83,54.46-73.14-7.28,3.48-15.83,5.06-26.6,5.06-34.51,0-56-19.31-56-49.08,0-34.51,30.08-57.31,68.71-57.31C858.54,50.31,888.3,73.11,888.3,119.65ZM833.2,145.3a259.48,259.48,0,0,0,1.9-32.93c0-42.43-3.8-57.63-16.46-57.63-11.4,0-15.83,12.35-15.83,45.91,0,38.64,7.28,48.45,19,48.45C825.92,149.42,829.72,147.84,833.2,145.3Z" transform="translate(219.97 -18.33)"/></svg>